<?xml version="1.0" encoding="UTF-8" standalone="no"?>
<svg
   xmlns:dc="http://purl.org/dc/elements/1.1/"
   xmlns:cc="http://creativecommons.org/ns#"
   xmlns:rdf="http://www.w3.org/1999/02/22-rdf-syntax-ns#"
   xmlns:svg="http://www.w3.org/2000/svg"
   xmlns="http://www.w3.org/2000/svg"
   xmlns:sodipodi="http://sodipodi.sourceforge.net/DTD/sodipodi-0.dtd"
   xmlns:inkscape="http://www.inkscape.org/namespaces/inkscape"
   width="264.59033mm"
   height="99.754913mm"
   viewBox="0 0 264.59033 99.754914"
   version="1.1"
   id="svg8"
   sodipodi:docname="MOVE2.svg"
   inkscape:version="1.0.1 (3bc2e813f5, 2020-09-07)">
  <sodipodi:namedview
     pagecolor="#ffffff"
     bordercolor="#666666"
     borderopacity="1"
     objecttolerance="10"
     gridtolerance="10"
     guidetolerance="10"
     inkscape:pageopacity="0"
     inkscape:pageshadow="2"
     inkscape:window-width="1536"
     inkscape:window-height="801"
     id="namedview841"
     showgrid="false"
     inkscape:zoom="0.67316563"
     inkscape:cx="520.61438"
     inkscape:cy="218.01248"
     inkscape:window-x="-8"
     inkscape:window-y="1072"
     inkscape:window-maximized="1"
     inkscape:current-layer="layer6"
     showguides="false" />
  <style
     id="style833" />
  <defs
     id="defs2">
    <filter
       inkscape:collect="always"
       style="color-interpolation-filters:sRGB"
       id="filter1834"
       x="-0.00021394857"
       width="1.0004278"
       y="-0.00021006566"
       height="1.0004201">
      <feGaussianBlur
         inkscape:collect="always"
         stdDeviation="0.002299437"
         id="feGaussianBlur1836" />
    </filter>
  </defs>
  <metadata
     id="metadata5">
    <rdf:RDF>
      <cc:Work
         rdf:about="">
        <dc:format>image/svg+xml</dc:format>
        <dc:type
           rdf:resource="http://purl.org/dc/dcmitype/StillImage" />
        <dc:title></dc:title>
      </cc:Work>
    </rdf:RDF>
  </metadata>
  <g
     id="layer1"
     transform="translate(34.157752,-160.11245)" />
  <g
     inkscape:groupmode="layer"
     id="layer6"
     inkscape:label="background"
     style="display:inline"
     transform="translate(0.00349758,0.00349758)">
    <path
       style="fill:#01355f;fill-opacity:1;stroke:none;stroke-width:0.264583;"
       d="m -34.154254,160.11595 v 99.74792 H 230.4291 V 160.11595 H -34.154254"
       id="path911"
       transform="translate(34.154254,-160.11595)" />
    <g
       id="MOVE_CIRC"
       style="display:inline;opacity:0.992;stroke:#ffffff;stroke-opacity:0;">
      <path
         style="fill:#ffffff;fill-opacity:1;stroke:#ffffff;stroke-width:0.264583;stroke-opacity:0;"
         d="m 117.71659,187.4437 c 16.81348,-2.06478 24.42422,20.48484 11.1125,30.00719 -2.32886,1.66582 -5.38162,2.61171 -8.20208,2.94905 -16.26659,1.94548 -23.531259,-20.15887 -11.37708,-29.71985 2.40982,-1.89574 5.45174,-2.86597 8.46666,-3.23639"
         id="path1151"
         transform="translate(34.154254,-160.11595)" />
      <path
         style="display:inline;fill:#01355f;stroke:#ffffff;stroke-width:0.264583;stroke-opacity:0;"
         d="m 108.45617,214.62012 2.38126,-1.85209 v -0.26458 c -7.50042,-7.56814 -2.49451,-20.87192 8.46666,-20.90208 v -2.91042 c -9.09743,0.0251 -16.17928,8.15869 -15.00479,17.19792 0.45349,3.48853 2.15715,5.94757 4.15687,8.73125"
         id="path1153"
         transform="translate(34.154254,-160.11595)" />
    </g>
    <path
       style="display:inline;opacity:1;fill:#01355f;stroke:#ffffff;stroke-width:0.264583;stroke-opacity:0;"
       d="m 118.51034,192.774 c -2.15714,0.28337 -4.04627,0.9226 -5.82083,2.21006 -9.15142,6.64078 -2.67229,21.24075 8.20208,19.82418 13.83004,-1.80182 11.34084,-23.83685 -2.38125,-22.03424"
       id="path1163"
       transform="translate(34.154254,-160.11595)" />
    <path
       style="display:inline;opacity:1;fill:#ffffff;fill-opacity:1;stroke:#ffffff;stroke-width:0.264583;stroke-opacity:0;"
       d="m 40.722831,191.14866 c 2.106348,-0.27437 4.321969,-0.0386 6.35,0.56912 13.037609,3.90658 10.22403,23.79927 -2.645833,25.47171 -1.919023,0.24923 -3.971396,0.10133 -5.820833,-0.46303 -12.860602,-3.92562 -11.255111,-23.83578 2.116666,-25.5778"
       id="path1155"
       transform="translate(34.154254,-160.11595)" />
    <path
       style="display:inline;opacity:1;fill:#ffffff;fill-opacity:1;stroke:#ffffff;stroke-width:0.264583;stroke-opacity:0;"
       d="m 189.94784,192.92428 v 10.58334 c 1.09459,-1.0377 2.20689,-1.85738 3.70417,-2.20107 11.96261,-2.74611 11.53663,18.11708 -0.26458,14.92038 -1.38536,-0.37544 -2.41565,-1.16522 -3.43959,-2.13598 v 2.11667 h -2.64583 v -23.28334 h 2.64583"
       id="path1165"
       transform="translate(34.154254,-160.11595)" />
    <path
       style="display:inline;opacity:1;fill:#ffffff;fill-opacity:1;stroke:#ffffff;stroke-width:0.264583;stroke-opacity:0;"
       d="m 124.86034,198.48053 -4.49791,11.90625 h -0.26459 l -1.73672,-5.62821 -5.40703,-1.78012 c 2.90275,-2.17196 8.36745,-3.6793 11.90625,-4.49792"
       id="path1169"
       transform="translate(34.154254,-160.11595)" />
    <path
       style="display:inline;opacity:1;fill:#01355f;stroke:#ffffff;stroke-width:0.264583;stroke-opacity:0;"
       d="m 40.987415,194.37023 c -12.03669,2.17011 -8.864601,21.77627 3.439583,19.55774 11.959961,-2.15636 8.736013,-21.75325 -3.439583,-19.55774"
       id="path1167"
       transform="translate(34.154254,-160.11595)" />
    <path
       style="display:inline;opacity:0.998;fill:#ffffff;fill-opacity:1;stroke:#ffffff;stroke-width:0.264583;stroke-opacity:0;"
       d="m 2.093665,237.1097 c -1.19935601,1.63221 -4.4431485,1.0033 -4.4431485,-1.33218 0,-2.00025 2.11772549,-0.95038 2.85432549,-0.25135 0.54186701,0.51435 1.06071501,1.05542 1.58882301,1.58353 z"
       id="MOVE_PATH1"
       transform="translate(34.154254,-160.11595)" />
    <path
       style="display:inline;opacity:1;fill:#ffffff;fill-opacity:1;stroke:#ffffff;stroke-width:0.264583;stroke-opacity:0;"
       d="m 169.83951,232.61178 -4.49792,-0.26458 v -0.52917 c 1.39118,0 3.60971,-0.46328 4.49792,0.79375"
       id="MOVE_PATH18"
       transform="translate(34.154254,-160.11595)" />
    <path
       style="display:inline;opacity:1;fill:#ffffff;fill-opacity:1;stroke:#ffffff;stroke-width:0.264583;stroke-opacity:0;"
       d="m 159.78534,231.55345 v 0.79375 h -4.49791 v -1.05833 l 4.49791,0.26458"
       id="MOVE_PATH17"
       transform="translate(34.154254,-160.11595)" />
    <path
       style="display:inline;opacity:1;fill:#ffffff;fill-opacity:1;stroke:#ffffff;stroke-width:0.264583;stroke-opacity:0;"
       d="m 84.379082,230.23053 0.264584,2.64584 h -4.497917 v -2.64584 h 4.233333"
       id="MOVE_PATH10"
       transform="translate(34.154254,-160.11595)" />
    <path
       style="display:inline;opacity:1;fill:#ffffff;fill-opacity:1;stroke:#ffffff;stroke-width:0.264583;stroke-opacity:0;"
       d="m 149.73118,230.7597 -0.26459,1.05833 c -1.34408,-0.34766 -4.25026,-0.26802 -3.96875,-2.11666 l 4.23334,1.05833"
       id="MOVE_PATH16"
       transform="translate(34.154254,-160.11595)" />
    <path
       style="display:inline;opacity:1;fill:#ffffff;fill-opacity:1;stroke:#ffffff;stroke-width:0.264583;stroke-opacity:0;"
       d="m 74.324915,232.61178 -4.497916,-0.52916 0.529166,-2.91042 c 2.871523,0.36486 4.213225,0.33708 3.96875,3.43958"
       id="MOVE_PATH9"
       transform="translate(34.154254,-160.11595)" />
    <path
       style="display:inline;opacity:1;fill:#ffffff;fill-opacity:1;stroke:#ffffff;stroke-width:0.264583;stroke-opacity:0;"
       d="m 94.697833,230.7597 -4.497917,1.05833 -0.264584,-2.38125 c 2.168526,-0.44767 4.318794,-1.61369 4.762501,1.32292"
       id="MOVE_PATH11"
       transform="translate(34.154254,-160.11595)" />
    <path
       style="display:inline;opacity:1;fill:#ffffff;fill-opacity:1;stroke:#ffffff;stroke-width:0.264583;stroke-opacity:0;"
       d="m 9.2374153,230.7597 -3.1750003,2.64583 c -0.861219,-0.61939 -2.60694,-1.97538 -2.592123,-3.16468 0.01243,-0.99906 2.360877,-2.86887 3.339836,-2.56857 1.0768539,0.3302 1.9621497,2.15344 2.4272873,3.08742"
       id="MOVE_PATH2"
       transform="translate(34.154254,-160.11595)" />
    <path
       style="display:inline;opacity:1;fill:#ffffff;fill-opacity:1;stroke:#ffffff;stroke-width:0.264583;stroke-opacity:0;"
       d="m 65.064498,227.5847 -0.79375,2.64583 c -3.193785,-0.47175 -4.314031,-1.1676 -3.439583,-4.23333 l 4.233333,1.5875"
       id="MOVE_PATH8"
       transform="translate(34.154254,-160.11595)" />
    <path
       style="display:inline;opacity:1;fill:#ffffff;fill-opacity:1;stroke:#ffffff;stroke-width:0.264583;stroke-opacity:0;"
       d="m 103.42908,224.67428 0.79375,2.11667 -4.233331,1.85208 -0.79375,-2.11666 4.233331,-1.85209"
       id="MOVE_PATH12"
       transform="translate(34.154254,-160.11595)" />
    <path
       style="display:inline;opacity:1;fill:#ffffff;fill-opacity:1;stroke:#ffffff;stroke-width:0.264583;stroke-opacity:0;"
       d="m 140.20618,228.11387 -3.70417,-2.38125 c 0.762,-2.47783 3.83805,0.78846 3.70417,2.38125"
       id="MOVE_PATH15"
       transform="translate(34.154254,-160.11595)" />
    <path
       style="display:inline;opacity:0.97;fill:#ffffff;fill-opacity:1;stroke:#ffffff;stroke-width:0.264583;stroke-opacity:0;"
       d="m 17.439498,225.46803 -3.968749,2.11667 -1.852084,-3.70417 c 3.461544,-1.44145 4.215871,-2.32463 5.820833,1.5875"
       id="MOVE_PATH3"
       transform="translate(34.154254,-160.11595)" />
    <path
       style="display:inline;opacity:1;fill:#ffffff;fill-opacity:1;stroke:#ffffff;stroke-width:0.264583;stroke-opacity:0;"
       d="m 52.099915,221.49928 3.96875,1.85209 c -0.23839,0.82708 -0.588698,2.18149 -1.426104,2.61064 -0.84164,0.43154 -3.402807,-0.6948 -3.650457,-1.61184 -0.24765,-0.91705 0.566209,-2.18043 1.107811,-2.85089"
       id="MOVE_PATH7"
       transform="translate(34.154254,-160.11595)" />
    <path
       style="display:inline;opacity:1;fill:#ffffff;fill-opacity:1;stroke:#ffffff;stroke-width:0.264583;stroke-opacity:0;"
       d="m 112.68951,220.44095 0.52917,1.85208 -3.96875,1.85209 -0.79376,-2.11667 4.23334,-1.5875"
       id="MOVE_PATH13"
       transform="translate(34.154254,-160.11595)" />
    <path
       style="display:inline;opacity:1;fill:#ffffff;fill-opacity:1;stroke:#ffffff;stroke-width:0.264583;stroke-opacity:0;"
       d="m 132.79784,220.44095 -0.52916,1.5875 c -1.58962,-0.6522 -4.27249,-1.04034 -3.70417,-3.175 l 4.23333,1.5875"
       id="MOVE_PATH14"
       transform="translate(34.154254,-160.11595)" />
    <path
       style="display:inline;opacity:1;fill:#ffffff;fill-opacity:1;stroke:#ffffff;stroke-width:0.264583;stroke-opacity:0;"
       d="m 26.435332,222.29303 -4.233334,1.05834 -1.058333,-3.70417 c 3.419475,-0.78396 4.956704,-1.56395 5.291667,2.64583"
       id="MOVE_PATH4"
       transform="translate(34.154254,-160.11595)" />
    <path
       style="display:inline;opacity:1;fill:#ffffff;fill-opacity:1;stroke:#ffffff;stroke-width:0.264583;stroke-opacity:0;"
       d="m 46.543665,219.38262 -0.79375,3.175 -4.233334,-0.79375 0.529167,-3.43959 4.497917,1.05834"
       id="MOVE_PATH6"
       transform="translate(34.154254,-160.11595)" />
    <path
       style="display:inline;opacity:1;fill:#ffffff;fill-opacity:1;stroke:#ffffff;stroke-width:0.264583;stroke-opacity:0;"
       d="m 36.224914,217.53053 -0.264583,3.43959 -4.233333,0.26458 -0.264584,-3.70417 h 4.7625"
       id="MOVE_PATH5"
       transform="translate(34.154254,-160.11595)" />
    <path
       style="display:inline;opacity:1;fill:#01355f;fill-opacity:1;stroke:#ffffff;stroke-width:0.264583;stroke-opacity:0;"
       d="m 193.65201,203.91296 c -5.9608,1.41843 -3.81185,11.20246 2.38125,9.77344 6.18755,-1.42795 3.91636,-11.27178 -2.38125,-9.77344"
       id="path1177"
       transform="translate(34.154254,-160.11595)" />
    <path
       style="display:inline;opacity:1;fill:#ffffff;fill-opacity:1;stroke:#ffffff;stroke-width:0.264583;stroke-opacity:0;"
       d="m 144.17493,201.65553 c 0,3.00779 -0.96997,8.28226 0.96652,10.82014 1.62348,2.12778 4.66434,1.35599 5.8891,-0.76703 1.56024,-2.70457 0.81729,-7.05485 0.81729,-10.05311 h 2.64584 v 14.55209 h -2.64584 v -2.11667 c -2.71065,2.64689 -8.38438,3.85842 -9.98828,-0.79375 -1.15808,-3.35889 -0.33047,-8.11133 -0.33047,-11.64167 h 2.64584"
       id="path1175"
       transform="translate(34.154254,-160.11595)" />
    <path
       style="display:inline;opacity:1;fill:#ffffff;fill-opacity:1;stroke:#ffffff;stroke-width:0.264583;stroke-opacity:0;"
       d="m 172.48534,214.09095 c 0.51012,-0.63024 1.22079,-1.51871 2.11667,-1.54808 1.59914,-0.0524 5.14138,2.98001 6.24232,-0.0669 0.57203,-1.58379 -2.04365,-2.17699 -3.06732,-2.4085 -2.89719,-0.65537 -5.08238,-2.20689 -4.4069,-5.50148 0.63024,-3.07393 4.44077,-3.82905 7.05273,-3.26231 0.96547,0.20928 2.77099,0.73633 2.93132,1.92616 0.4871,3.61659 -7.43664,-1.78884 -6.92097,2.39131 0.18442,1.49437 2.32701,1.80552 3.46049,2.09206 2.70219,0.68342 5.03952,2.46592 4.06056,5.58403 -1.54623,4.92522 -8.74131,3.39487 -11.4689,0.79375"
       id="path1173"
       transform="translate(34.154254,-160.11595)" />
    <path
       style="display:inline;opacity:1;fill:#ffffff;fill-opacity:1;stroke:#ffffff;stroke-width:0.264583;stroke-opacity:0;"
       d="m 171.16243,202.97845 -1.85209,2.38125 c -1.30148,-0.78264 -2.62784,-1.73672 -4.23333,-1.49675 -3.17315,0.47466 -5.09667,4.53364 -3.4372,7.31758 1.02738,1.72297 2.97921,2.99085 5.0247,2.50455 1.29514,-0.30771 2.42411,-1.80446 3.66369,-0.60828 1.42557,1.37557 -0.27543,2.39395 -1.54702,2.8784 -2.11032,0.80354 -4.85273,0.74666 -6.87917,-0.27649 -4.9493,-2.49872 -5.25515,-10.14968 -0.79348,-13.28234 3.17235,-2.22727 7.02071,-1.24222 10.0539,0.58208"
       id="path1171"
       transform="translate(34.154254,-160.11595)" />
    <path
       style="display:inline;opacity:1;fill:#ffffff;fill-opacity:1;stroke:#ffffff;stroke-width:0.264583;stroke-opacity:0;"
       d="m 98.931166,191.86595 v 3.175 h -12.7 v 7.40833 h 11.90625 v 3.175 h -11.90625 v 7.9375 h 13.229167 v 3.175 H 82.791582 v -24.87083 h 16.139584"
       id="path1161"
       transform="translate(34.154254,-160.11595)" />
    <path
       style="display:inline;opacity:1;fill:#ffffff;fill-opacity:1;stroke:#ffffff;stroke-width:0.264583;stroke-opacity:0;"
       d="m 68.504082,211.97428 7.408333,-20.10833 h 3.704167 c -0.366712,2.44793 -1.676929,4.85405 -2.592917,7.14375 -1.725612,4.3135 -3.451754,8.6323 -5.130006,12.96458 -0.812535,2.09736 -1.63195,6.18728 -4.866217,4.60296 -1.452562,-0.71173 -2.3114,-4.98925 -2.868877,-6.45504 -2.313781,-6.08224 -4.94665,-12.09305 -7.031567,-18.25625 l 3.833813,0.27199 2.200804,5.28426 5.342467,14.55208"
       id="path1159"
       transform="translate(34.154254,-160.11595)" />
    <path
       style="display:inline;opacity:1;fill:#ffffff;fill-opacity:1;stroke:#ffffff;stroke-width:0.264583;stroke-opacity:0;"
       d="m 11.883249,210.65137 h 0.264583 l 5.45121,-13.49375 2.390511,-5.01968 4.858279,-0.27199 v 24.87083 h -3.175 v -20.10833 h -0.264584 c -1.964795,5.06571 -4.141787,10.04914 -6.190456,15.08125 -0.50112,1.23084 -1.186127,4.52729 -2.600325,4.94268 -2.390246,0.70247 -2.9344934,-2.57466 -3.6049476,-4.14893 C 6.852726,207.43298 3.895742,201.98706 2.622832,196.62845 H 2.358248 v 20.10833 h -3.439583 v -24.87083 l 4.922838,0.27199 2.445808,5.01968 5.595938,13.49375"
       id="path1157"
       transform="translate(34.154254,-160.11595)" />
  </g>
</svg>
